<svg xmlns="http://www.w3.org/2000/svg" viewBox="0 0 678.05 194.73"><defs><style>.cls-1{fill:#0068b7;}.cls-2{fill:#fbc400;}</style></defs><title>logo</title><g id="Layer_2" data-name="Layer 2"><g id="Layer_1-2" data-name="Layer 1"><path class="cls-1" d="M10.1,48.07V78.46H.38V8H56.29Q68.45,9.18,68.44,28.14q0,18.72-12.15,19.93Zm43.76-9.72q6.08,0,6.08-10.21,0-10.46-6.08-10.45H10.1V38.35Z"/><path class="cls-1" d="M75.74,78.46V8h55.91q12.15,1.22,12.16,20.18,0,10.11-3.55,15.12,3.55,5.06,3.55,15.27l0,19.93H135.3V58.53q0-10.46-6.08-10.45H85.46V78.46Zm9.72-40.11h43.76q6.08,0,6.08-10.21,0-10.46-6.08-10.45H85.46Z"/><rect class="cls-1" x="151.55" y="7.96" width="9.72" height="70.5"/><path class="cls-1" d="M181.07,78.46Q168.92,76,168.92,54.15V32.27q0-21.88,12.16-24.31h53.48q12.16,2.43,12.15,24.31V54.15q0,21.88-12.15,24.31Zm4.86-60.78q-7.29,0-7.29,14.59V54.15q0,14.59,7.29,14.59h43.76q7.29,0,7.29-14.59V32.27q0-14.59-7.29-14.59Z"/><path class="cls-1" d="M254.28,78.46V8h55.91q12.15,1.22,12.16,20.18,0,10.11-3.55,15.12,3.55,5.06,3.55,15.27l0,19.93h-8.46V58.53q0-10.46-6.08-10.45H264V78.46ZM264,38.35h43.76q6.08,0,6.08-10.21,0-10.46-6.08-10.45H264Z"/><rect class="cls-1" x="330.09" y="7.96" width="9.72" height="70.5"/><polygon class="cls-1" points="386 78.46 376.28 78.46 376.28 17.68 347.11 17.68 347.11 7.96 415.18 7.96 415.18 17.68 386 17.68 386 78.46"/><polygon class="cls-1" points="456.5 44.52 455.29 43.21 422.47 7.96 434.63 7.96 461.37 36.7 488.11 7.96 500.26 7.96 467.44 43.21 466.23 44.52 466.23 78.46 456.5 78.46 456.5 44.52"/><rect class="cls-2" y="86.25" width="3.81" height="28.18"/><polygon class="cls-2" points="7.78 86.25 13.47 86.25 39.27 111.01 39.27 86.25 43.09 86.25 43.09 114.43 37.4 114.43 11.6 89.68 11.6 114.43 7.78 114.43 7.78 86.25"/><polygon class="cls-2" points="59.51 89.37 45.27 89.37 45.27 86.25 77.57 86.25 77.57 89.37 63.33 89.37 63.33 114.43 59.51 114.43 59.51 89.37"/><polygon class="cls-2" points="79.83 86.25 107.5 86.25 107.5 89.37 83.64 89.37 83.64 98.36 106.57 98.36 106.57 101.47 83.64 101.47 83.64 111.32 107.66 111.32 107.66 114.43 79.83 114.43 79.83 86.25"/><path class="cls-2" d="M145,104.35c0,7.67-2.49,10.39-9.54,10.39H119.74c-7.63,0-10-3.43-10-10.55V96.49c0-7.12,2.41-10.55,10-10.55h14.4c5.06,0,10.47,1.25,10.47,7.75v1H141c0-5.26-1.6-5.65-11-5.65h-9.89c-3.66,0-6.62,1.09-6.62,6v10.59c0,4.9,3,6,6.62,6H135c3.82,0,6.15-1.32,6.15-5.21v-2.84H126.75v-3.11H145Z"/><path class="cls-2" d="M148.34,86.25h22.54c8.13,0,9.42,2.69,9.42,8v2.3c0,4-2.26,5.06-5.18,5.33v.08c3.89.7,4.82,2.73,4.82,5.29v7.2h-3.58v-6.19c0-4.4-2.14-4.94-5.6-4.94h-18.6v11.13h-3.81Zm22.11,13.93c4.24,0,6-1.13,6-4.09V93.53c0-3.15-1.36-4.16-7-4.16H152.15v10.82Z"/><path class="cls-2" d="M198.7,86.25h4.75l16.74,28.18h-4.32l-3.5-6H189.79l-3.5,6H182Zm2.38,3.11-9.46,16h18.92Z"/><polygon class="cls-2" points="227.99 89.37 213.74 89.37 213.74 86.25 246.05 86.25 246.05 89.37 231.8 89.37 231.8 114.43 227.99 114.43 227.99 89.37"/><polygon class="cls-2" points="248.31 86.25 275.98 86.25 275.98 89.37 252.12 89.37 252.12 98.36 275.05 98.36 275.05 101.47 252.12 101.47 252.12 111.32 276.14 111.32 276.14 114.43 248.31 114.43 248.31 86.25"/><path class="cls-2" d="M279,86.25h22.77c9.46,0,12,3,12,14.09,0,10.35-2.57,14.09-12.14,14.09H279ZM310,99c0-8.13-2.53-9.61-7.2-9.61h-20v22h19.34c4.63,0,7.82-1,7.82-9.46Z"/><path class="cls-2" d="M332.76,105.56h3.58v2c0,2.76,1.48,4.09,6.23,4.09H354.4c5.53,0,7.16-1.17,7.16-5.22,0-3.54-1.4-4.44-6.15-4.44h-7.24c-11.64,0-15.45-.7-15.45-8.17,0-6.42,3.81-7.86,11.68-7.86h8.21c9.46,0,11.83,2.41,11.83,7.43v1h-3.58c-.08-4.48-.55-5.29-10.55-5.29h-4c-7.36,0-10,.39-10,5,0,3.35,1,4.48,7,4.48h11.29c7.44,0,10.55,2.14,10.55,6.93v1.83c0,6.93-5.68,7.43-11.33,7.43H343.23c-5.57,0-10.47-1-10.47-7.12Z"/><path class="cls-2" d="M368.21,96.49c0-7.12,2.41-10.55,10-10.55h16.23c7.63,0,10,3.43,10,10.55v7.71c0,7.12-2.41,10.55-10,10.55H378.26c-7.63,0-10-3.42-10-10.55ZM400.72,95c0-4.9-3-6-6.62-6H378.65c-3.66,0-6.62,1.09-6.62,6v10.59c0,4.9,3,6,6.62,6H394.1c3.66,0,6.62-1.09,6.62-6Z"/><polygon class="cls-2" points="408.17 86.25 411.98 86.25 411.98 111.32 433.86 111.32 433.86 114.43 408.17 114.43 408.17 86.25"/><path class="cls-2" d="M435.74,86.25h3.81v21.06c0,2.72.93,4.32,6.11,4.32H458.9c5.18,0,6.11-1.6,6.11-4.32V86.25h3.82v21.1c0,5.72-2.88,7.4-10,7.4h-13c-7.16,0-10-1.67-10-7.4Z"/><polygon class="cls-2" points="485.35 89.37 471.11 89.37 471.11 86.25 503.41 86.25 503.41 89.37 489.16 89.37 489.16 114.43 485.35 114.43 485.35 89.37"/><rect class="cls-2" x="505.72" y="86.25" width="3.82" height="28.18"/><path class="cls-2" d="M513.14,96.49c0-7.12,2.41-10.55,10-10.55h16.23c7.63,0,10,3.43,10,10.55v7.71c0,7.12-2.41,10.55-10,10.55H523.18c-7.63,0-10-3.42-10-10.55ZM545.64,95c0-4.9-3-6-6.62-6H523.57c-3.66,0-6.62,1.09-6.62,6v10.59c0,4.9,3,6,6.62,6H539c3.66,0,6.62-1.09,6.62-6Z"/><polygon class="cls-2" points="552.98 86.25 558.66 86.25 584.47 111.01 584.47 86.25 588.28 86.25 588.28 114.43 582.6 114.43 556.79 89.68 556.79 114.43 552.98 114.43 552.98 86.25"/><path class="cls-2" d="M591.67,105.56h3.58v2c0,2.76,1.48,4.09,6.23,4.09h11.84c5.52,0,7.16-1.17,7.16-5.22,0-3.54-1.4-4.44-6.15-4.44h-7.24c-11.64,0-15.45-.7-15.45-8.17,0-6.42,3.81-7.86,11.68-7.86h8.22c9.46,0,11.83,2.41,11.83,7.43v1h-3.58c-.08-4.48-.55-5.29-10.55-5.29h-4c-7.36,0-10,.39-10,5,0,3.35,1,4.48,7,4.48h11.29c7.43,0,10.55,2.14,10.55,6.93v1.83c0,6.93-5.68,7.43-11.33,7.43H602.14c-5.57,0-10.47-1-10.47-7.12Z"/><rect class="cls-1" x="495.23" y="59.41" width="6.16" height="21.24" transform="matrix(0.32, -0.95, 0.95, 0.32, 274.68, 520.81)"/><rect class="cls-1" x="502.54" y="43.2" width="6.16" height="21.24" transform="translate(204.73 463.72) rotate(-59.79)"/><rect class="cls-1" x="513.01" y="28.85" width="6.16" height="21.24" transform="translate(141.91 397.08) rotate(-48.08)"/><rect class="cls-1" x="526.18" y="16.89" width="6.16" height="21.24" transform="translate(86.74 319.14) rotate(-36.36)"/><rect class="cls-1" x="541.5" y="7.87" width="6.16" height="21.24" transform="translate(41.7 228.3) rotate(-24.59)"/><rect class="cls-1" x="558.35" y="2.18" width="6.16" height="21.24" transform="translate(11.02 124.24) rotate(-12.75)"/><rect class="cls-1" x="575.96" y="0.05" width="6.16" height="21.24" transform="translate(-0.1 10.52) rotate(-1.04)"/><rect class="cls-1" x="586.17" y="9.08" width="21.24" height="6.16" transform="translate(474.39 596.39) rotate(-79.33)"/><rect class="cls-1" x="603.25" y="14.17" width="21.24" height="6.16" transform="translate(362.73 577.66) rotate(-67.47)"/><rect class="cls-1" x="618.87" y="22.62" width="21.24" height="6.16" transform="translate(253.51 531.22) rotate(-55.7)"/><rect class="cls-1" x="632.47" y="34.1" width="21.24" height="6.16" transform="translate(154.5 456.97) rotate(-43.98)"/><rect class="cls-1" x="643.44" y="48.09" width="21.24" height="6.16" transform="translate(73.61 356.93) rotate(-32.25)"/><rect class="cls-1" x="651.33" y="64.01" width="21.24" height="6.16" transform="translate(18.32 235.65) rotate(-20.46)"/><rect class="cls-1" x="655.8" y="81.27" width="21.24" height="6.16" transform="matrix(0.99, -0.15, 0.15, 0.99, -5.12, 100.55)"/><rect class="cls-1" x="664.2" y="91.46" width="6.16" height="21.24" transform="translate(530 763.02) rotate(-86.96)"/><rect class="cls-1" x="661.44" y="109.05" width="6.16" height="21.24" transform="translate(378.73 731.41) rotate(-75.17)"/><rect class="cls-1" x="655.15" y="125.65" width="6.16" height="21.24" transform="translate(241.26 663.5) rotate(-63.36)"/><rect class="cls-1" x="645.57" y="140.67" width="6.16" height="21.24" transform="translate(127.04 565.48) rotate(-51.58)"/><rect class="cls-1" x="633.16" y="153.4" width="6.16" height="21.24" transform="translate(42.81 446.05) rotate(-39.88)"/><rect class="cls-1" x="618.41" y="163.35" width="6.16" height="21.24" transform="matrix(0.88, -0.47, 0.47, 0.88, -8.63, 313.5)"/><rect class="cls-1" x="601.96" y="170.07" width="6.16" height="21.24" transform="matrix(0.96, -0.28, 0.28, 0.96, -26.39, 177.07)"/><rect class="cls-1" x="584.44" y="173.28" width="6.16" height="21.24" transform="translate(-12.59 46.54) rotate(-4.49)"/><rect class="cls-1" x="559.13" y="180.41" width="21.24" height="6.16" transform="translate(316.7 725.94) rotate(-82.84)"/><rect class="cls-1" x="541.83" y="176.4" width="21.24" height="6.16" transform="translate(203.22 643.65) rotate(-71.04)"/><rect class="cls-1" x="525.68" y="168.91" width="21.24" height="6.16" transform="translate(114.04 544.68) rotate(-59.21)"/><rect class="cls-1" x="511.41" y="158.28" width="21.24" height="6.16" transform="translate(50.26 437.02) rotate(-47.47)"/><rect class="cls-1" x="499.59" y="144.98" width="21.24" height="6.16" transform="translate(9.67 326.09) rotate(-35.76)"/><rect class="cls-1" x="490.74" y="129.59" width="21.24" height="6.16" transform="translate(-10.61 215.42) rotate(-24)"/></g></g></svg>